<svg width="34" height="34" viewBox="0 0 34 34" fill="none" xmlns="http://www.w3.org/2000/svg">
<path d="M12.5436 5.87066C12.3164 5.85033 12.1057 5.73245 11.9571 5.54259C11.8085 5.35274 11.7342 5.10622 11.7501 4.85652C11.7865 4.27412 11.6127 3.69938 11.2663 3.25657C10.9198 2.81376 10.4286 2.53846 9.89877 2.49019C9.67797 2.45318 9.47655 2.33054 9.33102 2.14449C9.18549 1.95844 9.10547 1.72131 9.10547 1.47605C9.10547 1.2308 9.18549 0.993662 9.33102 0.807616C9.47655 0.621569 9.67797 0.498927 9.89877 0.461914C11.797 0.461914 13.3355 2.43054 13.338 4.85652C13.3539 5.10636 13.2794 5.35301 13.1307 5.54289C12.9819 5.73277 12.771 5.85056 12.5436 5.87066Z" fill="#9595AC"/>
<path d="M20.4771 5.87066C20.2499 5.85033 20.0392 5.73245 19.8906 5.54259C19.7421 5.35274 19.6677 5.10622 19.6836 4.85652C19.72 4.27412 19.5462 3.69938 19.1998 3.25657C18.8534 2.81376 18.3622 2.53846 17.8323 2.49019C17.6116 2.45318 17.4101 2.33054 17.2646 2.14449C17.1191 1.95844 17.0391 1.72131 17.0391 1.47605C17.0391 1.2308 17.1191 0.993662 17.2646 0.807616C17.4101 0.621569 17.6116 0.498927 17.8323 0.461914C19.7305 0.461914 21.269 2.43054 21.2714 4.85652C21.2874 5.10636 21.2129 5.35301 21.0642 5.54289C20.9154 5.73277 20.7045 5.85056 20.4771 5.87066Z" fill="#9595AC"/>
<path d="M28.4147 5.87066C28.1875 5.85033 27.9767 5.73245 27.8282 5.54259C27.6796 5.35274 27.6052 5.10622 27.6212 4.85652C27.6576 4.27412 27.4838 3.69938 27.1374 3.25657C26.7909 2.81376 26.2997 2.53846 25.7699 2.49019C25.5491 2.45318 25.3477 2.33054 25.2021 2.14449C25.0566 1.95844 24.9766 1.72131 24.9766 1.47605C24.9766 1.2308 25.0566 0.993662 25.2021 0.807616C25.3477 0.621569 25.5491 0.498927 25.7699 0.461914C27.6681 0.461914 29.2066 2.43054 29.2091 4.85652C29.225 5.10636 29.1505 5.35301 29.0017 5.54289C28.853 5.73277 28.642 5.85056 28.4147 5.87066Z" fill="#9595AC"/>
<path d="M29.4111 4.94043H23.272C20.9989 4.94043 19.1562 6.96381 19.1562 9.45977V29.297C19.1562 31.7929 20.9989 33.8163 23.272 33.8163H29.4111C31.6842 33.8163 33.5269 31.7929 33.5269 29.297V9.45977C33.5269 6.96381 31.6842 4.94043 29.4111 4.94043Z" fill="#EBEBEB"/>
<path d="M29.8379 4.94043H5.06924C4.61463 4.94043 4.24609 5.34511 4.24609 5.8443V32.9124C4.24609 33.4116 4.61463 33.8163 5.06924 33.8163H29.8379C30.2925 33.8163 30.661 33.4116 30.661 32.9124V5.8443C30.661 5.34511 30.2925 4.94043 29.8379 4.94043Z" fill="#DEDEDE"/>
<path d="M30.6243 5.24819C30.5573 5.13227 30.4653 5.0363 30.3565 4.96882C30.2476 4.90133 30.1253 4.8644 30.0003 4.86133H5.13623C4.94605 4.87345 4.76549 4.95721 4.62499 5.09848C4.48449 5.23975 4.39265 5.42989 4.36494 5.63685L0.1323 27.947C0.103589 28.0949 0.101828 28.2476 0.127117 28.3962C0.152406 28.5448 0.204245 28.6864 0.279644 28.813C0.346589 28.9289 0.438572 29.0248 0.547423 29.0923C0.656273 29.1598 0.77862 29.1967 0.903592 29.1998H25.7685C25.9587 29.1877 26.1393 29.1039 26.2798 28.9627C26.4203 28.8214 26.5121 28.6312 26.5398 28.4243L30.7724 6.11409C30.801 5.96617 30.8027 5.81349 30.7772 5.66487C30.7518 5.51625 30.6998 5.37463 30.6243 5.24819Z" fill="#86B8D9"/>
<path d="M30.7726 6.11408C30.8013 5.96622 30.8031 5.81358 30.7778 5.66496C30.7525 5.51634 30.7007 5.37469 30.6253 5.24818C30.5583 5.13226 30.4663 5.0363 30.3575 4.96881C30.2486 4.90132 30.1263 4.8644 30.0013 4.86133H5.13469C4.94451 4.87345 4.76394 4.9572 4.62345 5.09847C4.48295 5.23974 4.3911 5.42988 4.3634 5.63684L3.16406 11.9639H29.6622L30.7726 6.11408Z" fill="#82D6F9"/>
<path d="M19.1557 17.37H17.0394C16.8186 17.333 16.6172 17.2103 16.4716 17.0242C16.3261 16.838 16.2461 16.6008 16.2461 16.3554C16.2461 16.1101 16.3261 15.8728 16.4716 15.6867C16.6172 15.5006 16.8186 15.3779 17.0394 15.3408H19.1557C19.3765 15.3779 19.5779 15.5006 19.7234 15.6867C19.869 15.8728 19.949 16.1101 19.949 16.3554C19.949 16.6008 19.869 16.838 19.7234 17.0242C19.5779 17.2103 19.3765 17.333 19.1557 17.37Z" fill="#F05454"/>
<path d="M13.8666 17.37H11.7503C11.5295 17.333 11.3281 17.2103 11.1826 17.0242C11.037 16.838 10.957 16.6008 10.957 16.3554C10.957 16.1101 11.037 15.8728 11.1826 15.6867C11.3281 15.5006 11.5295 15.3779 11.7503 15.3408H13.8666C14.0874 15.3779 14.2888 15.5006 14.4344 15.6867C14.5799 15.8728 14.6599 16.1101 14.6599 16.3554C14.6599 16.6008 14.5799 16.838 14.4344 17.0242C14.2888 17.2103 14.0874 17.333 13.8666 17.37Z" fill="#F05454"/>
<path d="M8.57367 17.37H6.45734C6.23655 17.333 6.03514 17.2103 5.88961 17.0242C5.74408 16.838 5.66406 16.6008 5.66406 16.3554C5.66406 16.1101 5.74408 15.8728 5.88961 15.6867C6.03514 15.5006 6.23655 15.3779 6.45734 15.3408H8.57367C8.79446 15.3779 8.99587 15.5006 9.1414 15.6867C9.28693 15.8728 9.36694 16.1101 9.36694 16.3554C9.36694 16.6008 9.28693 16.838 9.1414 17.0242C8.99587 17.2103 8.79446 17.333 8.57367 17.37Z" fill="#F05454"/>
<path d="M24.4448 17.37H22.3284C22.1076 17.333 21.9062 17.2103 21.7607 17.0242C21.6152 16.838 21.5352 16.6008 21.5352 16.3554C21.5352 16.1101 21.6152 15.8728 21.7607 15.6867C21.9062 15.5006 22.1076 15.3779 22.3284 15.3408H24.4448C24.6655 15.3779 24.867 15.5006 25.0125 15.6867C25.158 15.8728 25.238 16.1101 25.238 16.3554C25.238 16.6008 25.158 16.838 25.0125 17.0242C24.867 17.2103 24.6655 17.333 24.4448 17.37Z" fill="#F05454"/>
<path d="M18.0971 21.4267H15.9808C15.76 21.3897 15.5586 21.2669 15.413 21.0808C15.2675 20.8947 15.1875 20.6574 15.1875 20.4121C15.1875 20.1667 15.2675 19.9295 15.413 19.7433C15.5586 19.5572 15.76 19.4345 15.9808 19.3975H18.0971C18.3179 19.4345 18.5193 19.5572 18.6648 19.7433C18.8104 19.9295 18.8904 20.1667 18.8904 20.4121C18.8904 20.6574 18.8104 20.8947 18.6648 21.0808C18.5193 21.2669 18.3179 21.3897 18.0971 21.4267Z" fill="#F05454"/>
<path d="M12.808 21.4267H10.6917C10.4709 21.3897 10.2695 21.2669 10.124 21.0808C9.97845 20.8947 9.89844 20.6574 9.89844 20.4121C9.89844 20.1667 9.97845 19.9295 10.124 19.7433C10.2695 19.5572 10.4709 19.4345 10.6917 19.3975H12.808C13.0288 19.4345 13.2302 19.5572 13.3758 19.7433C13.5213 19.9295 13.6013 20.1667 13.6013 20.4121C13.6013 20.6574 13.5213 20.8947 13.3758 21.0808C13.2302 21.2669 13.0288 21.3897 12.808 21.4267Z" fill="#F05454"/>
<path d="M7.51507 21.4267H5.39875C5.17795 21.3897 4.97654 21.2669 4.83101 21.0808C4.68549 20.8947 4.60547 20.6574 4.60547 20.4121C4.60547 20.1667 4.68549 19.9295 4.83101 19.7433C4.97654 19.5572 5.17795 19.4345 5.39875 19.3975H7.51507C7.73587 19.4345 7.93728 19.5572 8.0828 19.7433C8.22833 19.9295 8.30835 20.1667 8.30835 20.4121C8.30835 20.6574 8.22833 20.8947 8.0828 21.0808C7.93728 21.2669 7.73587 21.3897 7.51507 21.4267Z" fill="#F05454"/>
<path d="M23.3862 21.4267H21.2698C21.0491 21.3897 20.8476 21.2669 20.7021 21.0808C20.5566 20.8947 20.4766 20.6574 20.4766 20.4121C20.4766 20.1667 20.5566 19.9295 20.7021 19.7433C20.8476 19.5572 21.0491 19.4345 21.2698 19.3975H23.3862C23.607 19.4345 23.8084 19.5572 23.9539 19.7433C24.0994 19.9295 24.1794 20.1667 24.1794 20.4121C24.1794 20.6574 24.0994 20.8947 23.9539 21.0808C23.8084 21.2669 23.607 21.3897 23.3862 21.4267Z" fill="#F05454"/>
<path d="M17.5698 25.4833H15.4534C15.2326 25.4463 15.0312 25.3236 14.8857 25.1375C14.7402 24.9513 14.6602 24.7141 14.6602 24.4687C14.6602 24.2234 14.7402 23.9861 14.8857 23.8C15.0312 23.6138 15.2326 23.4911 15.4534 23.4541H17.5698C17.7906 23.4911 17.992 23.6138 18.1375 23.8C18.283 23.9861 18.363 24.2234 18.363 24.4687C18.363 24.7141 18.283 24.9513 18.1375 25.1375C17.992 25.3236 17.7906 25.4463 17.5698 25.4833Z" fill="#F05454"/>
<path d="M12.2768 25.4833H10.1605C9.93968 25.4463 9.73826 25.3236 9.59273 25.1375C9.4472 24.9513 9.36719 24.7141 9.36719 24.4687C9.36719 24.2234 9.4472 23.9861 9.59273 23.8C9.73826 23.6138 9.93968 23.4911 10.1605 23.4541H12.2768C12.4976 23.4911 12.699 23.6138 12.8445 23.8C12.9901 23.9861 13.0701 24.2234 13.0701 24.4687C13.0701 24.7141 12.9901 24.9513 12.8445 25.1375C12.699 25.3236 12.4976 25.4463 12.2768 25.4833Z" fill="#F05454"/>
<path d="M6.98773 25.4833H4.8714C4.65061 25.4463 4.4492 25.3236 4.30367 25.1375C4.15814 24.9513 4.07813 24.7141 4.07812 24.4687C4.07813 24.2234 4.15814 23.9861 4.30367 23.8C4.4492 23.6138 4.65061 23.4911 4.8714 23.4541H6.98773C7.20852 23.4911 7.40993 23.6138 7.55546 23.8C7.70099 23.9861 7.78101 24.2234 7.78101 24.4687C7.78101 24.7141 7.70099 24.9513 7.55546 25.1375C7.40993 25.3236 7.20852 25.4463 6.98773 25.4833Z" fill="#F05454"/>
<path d="M22.8588 25.4833H20.7425C20.5217 25.4463 20.3203 25.3236 20.1748 25.1375C20.0292 24.9513 19.9492 24.7141 19.9492 24.4687C19.9492 24.2234 20.0292 23.9861 20.1748 23.8C20.3203 23.6138 20.5217 23.4911 20.7425 23.4541H22.8588C23.0796 23.4911 23.281 23.6138 23.4266 23.8C23.5721 23.9861 23.6521 24.2234 23.6521 24.4687C23.6521 24.7141 23.5721 24.9513 23.4266 25.1375C23.281 25.3236 23.0796 25.4463 22.8588 25.4833Z" fill="#F05454"/>
<path d="M25.7703 9.25505C23.8713 9.25505 22.332 7.28733 22.332 4.86044C22.332 2.43354 23.8713 0.46582 25.7703 0.46582C25.9911 0.502833 26.1925 0.625478 26.3381 0.811524C26.4836 0.997571 26.5636 1.23471 26.5636 1.47996C26.5636 1.72522 26.4836 1.96235 26.3381 2.1484C26.1925 2.33445 25.9911 2.45709 25.7703 2.4941C25.2403 2.54169 24.7487 2.81679 24.4021 3.25977C24.0556 3.70274 23.882 4.27787 23.9191 4.86044C23.8822 5.44285 24.0559 6.01775 24.4024 6.46052C24.7489 6.9033 25.2404 7.17828 25.7703 7.22586C25.9911 7.26288 26.1925 7.38552 26.3381 7.57157C26.4836 7.75761 26.5636 7.99475 26.5636 8.24001C26.5636 8.48526 26.4836 8.7224 26.3381 8.90844C26.1925 9.09449 25.9911 9.21713 25.7703 9.25415V9.25505Z" fill="#9595AC"/>
<path d="M17.8327 9.25505C15.9338 9.25505 14.3945 7.28733 14.3945 4.86044C14.3945 2.43354 15.9338 0.46582 17.8327 0.46582C18.0535 0.502833 18.2549 0.625478 18.4004 0.811524C18.546 0.997571 18.626 1.23471 18.626 1.47996C18.626 1.72522 18.546 1.96235 18.4004 2.1484C18.2549 2.33445 18.0535 2.45709 17.8327 2.4941C17.3027 2.54169 16.8111 2.81679 16.4645 3.25977C16.118 3.70274 15.9444 4.27787 15.9815 4.86044C15.9447 5.44285 16.1183 6.01775 16.4648 6.46052C16.8114 6.9033 17.3028 7.17828 17.8327 7.22586C18.0535 7.26288 18.2549 7.38552 18.4004 7.57157C18.546 7.75761 18.626 7.99475 18.626 8.24001C18.626 8.48526 18.546 8.7224 18.4004 8.90844C18.2549 9.09449 18.0535 9.21713 17.8327 9.25415V9.25505Z" fill="#9595AC"/>
<path d="M9.89532 9.25505C7.99632 9.25505 6.45703 7.28733 6.45703 4.86044C6.45703 2.43354 7.99632 0.46582 9.89532 0.46582C10.1161 0.502833 10.3175 0.625478 10.4631 0.811524C10.6086 0.997571 10.6886 1.23471 10.6886 1.47996C10.6886 1.72522 10.6086 1.96235 10.4631 2.1484C10.3175 2.33445 10.1161 2.45709 9.89532 2.4941C9.36526 2.54169 8.87365 2.81679 8.52709 3.25977C8.18054 3.70274 8.00698 4.27787 8.04406 4.86044C8.00721 5.44285 8.18087 6.01775 8.5274 6.46052C8.87393 6.9033 9.36542 7.17828 9.89532 7.22586C10.1161 7.26288 10.3175 7.38552 10.4631 7.57157C10.6086 7.75761 10.6886 7.99475 10.6886 8.24001C10.6886 8.48526 10.6086 8.7224 10.4631 8.90844C10.3175 9.09449 10.1161 9.21713 9.89532 9.25415V9.25505Z" fill="#9595AC"/>
</svg>
